<svg xmlns="http://www.w3.org/2000/svg" viewBox="0 0 109.78 109.78"><defs><style>.cls-1{fill:none;}.cls-2{fill:#8c8c8c;}</style></defs><g id="Capa_2" data-name="Capa 2"><g id="Capa_2-2" data-name="Capa 2"><circle class="cls-1" cx="54.89" cy="54.89" r="54.89"/><polygon class="cls-2" points="40.4 40.29 40.4 55.18 10.22 55.18 10.22 69.66 25.31 69.66 25.31 84.15 40.4 84.15 40.4 69.26 54.88 69.26 54.88 97.83 70.58 97.83 70.58 83.34 85.87 83.75 85.87 69.06 69.77 69.06 69.77 53.97 99.55 53.97 99.55 40.29 85.06 40.29 85.06 25 69.77 25 69.77 40.69 54.88 40.69 54.88 12.52 41.2 12.52 40.8 26.61 24.71 26.61 24.71 40.29 40.4 40.29"/></g></g></svg>